<?xml version="1.0" standalone="no"?>
<!DOCTYPE svg PUBLIC "-//W3C//DTD SVG 20010904//EN"
 "http://www.w3.org/TR/2001/REC-SVG-20010904/DTD/svg10.dtd">
<svg version="1.0" xmlns="http://www.w3.org/2000/svg"
 width="1921.000000pt" height="1328.000000pt" viewBox="0 0 1921.000000 1328.000000"
 preserveAspectRatio="xMidYMid meet">
<metadata>
Created by potrace 1.16, written by Peter Selinger 2001-2019
</metadata>
<g transform="translate(0.000000,1328.000000) scale(0.100000,-0.100000)"
fill="#000000" stroke="none">
<path d="M110 12570 l0 -600 2625 0 2625 0 0 365 c0 225 -4 384 -11 417 -15
72 -70 183 -118 239 -51 58 -136 115 -221 149 l-65 25 -2417 3 -2418 2 0 -600z
m2176 108 c30 -14 44 -50 44 -108 0 -41 -5 -56 -29 -82 -26 -29 -35 -33 -80
-33 -68 0 -102 32 -108 102 -9 110 75 169 173 121z m1190 0 c30 -14 44 -50 44
-108 0 -41 -5 -56 -29 -82 -26 -29 -35 -33 -80 -33 -68 0 -102 32 -108 102 -9
110 75 169 173 121z m-1606 -8 c12 -12 20 -33 20 -55 0 -22 -8 -43 -20 -55
-12 -12 -33 -20 -55 -20 -34 0 -35 -1 -35 -40 0 -36 -2 -40 -25 -40 l-25 0 0
108 c0 60 3 112 7 115 3 4 30 7 60 7 40 0 58 -5 73 -20z m190 2 c26 -21 30
-66 7 -89 -14 -14 -14 -19 -1 -45 8 -15 19 -39 24 -53 9 -23 7 -25 -18 -25
-23 0 -31 8 -47 43 -11 23 -28 43 -37 45 -15 3 -18 -4 -18 -42 0 -42 -2 -46
-25 -46 l-25 0 0 108 c0 60 3 112 7 115 15 15 111 7 133 -11z m450 5 c65 -32
76 -144 18 -192 -25 -21 -40 -25 -94 -25 l-64 0 0 108 c0 60 3 112 7 115 11
12 107 7 133 -6z m130 -56 c0 -93 11 -121 49 -121 37 0 41 12 41 111 0 78 0
79 25 79 25 0 25 -1 25 -91 0 -50 -4 -99 -10 -109 -13 -24 -72 -43 -110 -35
-54 12 -70 46 -70 146 0 88 0 89 25 89 24 0 25 -2 25 -69z m344 54 c8 -9 13
-22 10 -30 -7 -17 -20 -19 -29 -5 -10 15 -46 12 -67 -7 -23 -21 -25 -95 -2
-117 18 -18 47 -20 75 -6 15 9 21 7 26 -5 18 -50 -94 -70 -141 -26 -47 44 -47
138 1 185 30 31 101 37 127 11z m190 0 c8 -9 13 -22 10 -30 -7 -17 -20 -19
-29 -5 -10 15 -46 12 -67 -7 -23 -21 -25 -95 -2 -117 18 -18 47 -20 75 -6 15
9 21 7 26 -5 18 -50 -94 -70 -141 -26 -47 44 -47 138 1 185 30 31 101 37 127
11z m485 -62 l40 -78 1 78 c0 75 1 78 23 75 21 -3 22 -7 22 -113 l0 -110 -31
-3 c-30 -3 -33 1 -72 75 l-41 78 -1 -77 c0 -76 -1 -78 -25 -78 l-25 0 0 108
c0 60 3 112 7 115 3 4 19 7 35 7 25 0 32 -9 67 -77z"/>
<path d="M9815 11794 c-14 -15 -25 -31 -25 -35 0 -5 -37 -9 -83 -9 -90 0 -107
-8 -107 -50 0 -42 17 -50 105 -50 l80 -1 23 -35 c21 -33 22 -46 22 -224 l0
-188 -25 -16 c-14 -9 -25 -25 -25 -36 0 -10 -9 -27 -20 -38 -15 -14 -50 -89
-50 -108 0 -2 74 -4 165 -4 154 0 165 1 165 19 0 33 -22 81 -41 92 -10 5 -19
19 -19 30 0 11 -11 30 -25 43 -25 23 -25 24 -25 209 0 175 1 188 23 221 l22
35 81 1 c87 0 104 8 104 50 0 42 -17 50 -107 50 -46 0 -83 4 -83 9 0 4 -11 20
-25 35 -18 20 -34 26 -65 26 -31 0 -47 -6 -65 -26z"/>
<path d="M9566 11500 c-44 -67 -66 -111 -66 -131 0 -44 23 -91 59 -122 65 -54
162 -25 197 60 25 59 18 88 -47 186 -34 51 -65 96 -69 100 -4 5 -37 -37 -74
-93z m114 -20 c64 -94 66 -90 -44 -90 -53 0 -96 3 -96 6 0 11 85 143 92 144 4
0 26 -27 48 -60z"/>
<path d="M10056 11500 c-44 -67 -66 -111 -66 -131 0 -44 23 -91 59 -122 65
-54 162 -25 197 60 25 59 18 88 -47 186 -34 51 -65 96 -69 100 -4 5 -37 -37
-74 -93z m114 -20 c64 -94 66 -90 -44 -90 -53 0 -96 3 -96 6 0 11 85 143 92
144 4 0 26 -27 48 -60z"/>
<path d="M8604 11091 c-2 -2 -4 -82 -4 -178 l0 -173 -25 0 c-25 0 -25 1 -25
86 l0 85 -61 -70 c-34 -39 -66 -71 -70 -71 -5 0 -9 32 -9 71 l0 70 -62 -70
c-33 -39 -63 -69 -66 -66 -3 3 -5 35 -4 73 l2 67 -46 -50 c-25 -27 -61 -68
-79 -91 l-34 -40 -1 -197 -2 -198 216 -2 216 -2 0 68 c0 64 1 67 25 67 23 0
24 -3 27 -66 l3 -66 58 -2 57 -1 0 377 0 376 -56 4 c-31 1 -58 1 -60 -1z m94
-378 l-3 -348 -30 0 c-30 0 -30 1 -35 65 l-5 65 -47 3 -47 3 -3 -68 -3 -68
-190 0 -190 0 -3 177 -2 177 46 53 c26 29 51 55 56 56 4 2 8 -26 8 -62 0 -36
3 -66 8 -65 4 0 32 29 62 65 30 35 58 64 63 64 4 0 7 -30 7 -67 l1 -68 63 68
c34 37 65 67 69 67 4 0 7 -27 7 -60 l0 -60 50 0 50 0 0 175 0 175 35 0 35 0
-2 -347z"/>
<path d="M8257 10624 c-4 -4 -7 -31 -7 -61 l0 -53 85 0 86 0 -3 58 -3 57 -75
3 c-42 1 -79 0 -83 -4z"/>
<path d="M7806 10741 c-18 -56 -20 -74 -5 -48 9 14 26 17 119 17 64 0 110 -4
112 -10 2 -6 2 -31 0 -55 -4 -40 -7 -45 -29 -45 -21 0 -24 4 -20 23 l6 22 -16
-22 c-12 -18 -25 -23 -60 -23 -42 0 -45 2 -40 23 l6 22 -16 -22 c-22 -32 -51
-30 -59 5 -12 53 -13 46 -11 -68 2 -111 3 -115 25 -118 27 -4 29 -32 2 -39
-20 -5 -29 -33 -10 -33 6 0 10 -7 10 -15 0 -8 9 -15 19 -15 10 0 21 7 25 15 4
11 20 15 56 15 38 0 50 -4 50 -15 0 -22 33 -18 53 5 22 27 22 40 -3 40 -13 0
-20 7 -20 20 0 13 7 20 20 20 18 0 20 7 21 83 2 178 -2 228 -24 255 -6 8 -40
12 -102 12 l-93 0 -16 -49z"/>
<path d="M10531 10380 c-740 -283 -1423 -736 -1925 -1278 -344 -370 -581 -712
-796 -1147 -134 -272 -203 -445 -291 -734 -79 -260 -104 -385 -171 -836 -18
-124 -18 -826 0 -945 7 -47 22 -143 33 -215 32 -209 74 -405 113 -531 13 -43
37 -119 51 -169 46 -150 76 -217 94 -212 144 38 284 84 288 95 3 7 -13 68 -35
135 -79 237 -120 392 -154 582 -64 360 -71 445 -71 795 0 256 3 333 22 475 12
94 24 177 26 185 3 8 14 67 25 130 20 118 62 292 99 413 12 37 29 95 40 130
26 87 149 390 212 522 127 268 318 574 508 814 478 601 1102 1086 1746 1356
255 107 409 176 422 188 9 9 4 35 -21 107 -43 129 -67 174 -91 177 -11 2 -67
-15 -124 -37z"/>
<path d="M7165 9769 c-4 -6 -4 -13 0 -17 9 -9 651 -9 660 0 4 4 4 11 0 17 -9
15 -651 15 -660 0z"/>
<path d="M7182 9673 l3 -58 310 0 310 0 3 58 3 57 -316 0 -316 0 3 -57z"/>
<path d="M7160 9585 c0 -13 43 -15 336 -15 264 0 335 3 332 13 -4 9 -82 13
-336 15 -291 2 -332 0 -332 -13z"/>
<path d="M7180 9330 l0 -210 315 0 315 0 0 210 c0 116 -3 210 -7 210 -5 0 -8
-28 -8 -62 l0 -63 -303 -3 -304 -2 4 65 c1 36 0 65 -4 65 -5 0 -8 -94 -8 -210z
m208 -47 l3 -113 -101 0 -100 0 0 108 c0 60 3 112 7 116 4 4 48 5 98 4 l90 -3
3 -112z m190 -15 l3 -128 -86 0 -85 0 0 123 c0 68 3 127 7 131 4 4 41 5 83 4
l75 -3 3 -127z m217 110 c3 -13 5 -63 3 -113 l-3 -90 -97 -3 -98 -3 0 109 c0
60 3 112 7 115 3 4 46 7 94 7 84 0 89 -1 94 -22z"/>
<path d="M7432 9268 l3 -113 60 0 60 0 0 110 0 110 -63 3 -63 3 3 -113z"/>
<path d="M7126 9084 c-17 -45 -28 -44 369 -44 397 0 386 -1 369 44 -5 14 -47
16 -369 16 -322 0 -364 -2 -369 -16z"/>
<path d="M6467 8703 c-4 -3 -7 -183 -7 -400 l0 -393 29 0 c27 0 30 -3 33 -37
2 -26 8 -39 20 -41 13 -2 17 5 20 35 l3 38 209 3 c226 3 226 3 226 -50 0 -44
28 -35 32 9 3 33 7 39 33 43 l30 5 0 395 0 395 -311 3 c-171 1 -313 -1 -317
-5z m593 -398 l0 -355 -280 0 -280 0 0 355 0 355 280 0 280 0 0 -355z"/>
<path d="M6549 8596 c-12 -13 -12 -123 1 -131 6 -4 10 17 10 55 l0 60 218 -2
217 -3 0 -270 0 -270 -215 0 -215 0 -6 65 c-8 92 -14 50 -10 -72 1 -17 19 -18
231 -18 l230 0 -2 295 -3 296 -223 2 c-131 1 -227 -2 -233 -7z"/>
<path d="M6576 8405 c-61 -65 -28 -185 50 -185 24 0 39 8 59 32 24 28 27 39
22 82 -8 85 -81 125 -131 71z m91 -17 c49 -53 22 -148 -41 -148 -60 0 -88 99
-41 145 30 31 55 32 82 3z"/>
<path d="M6267 7682 c-19 -21 -23 -83 -7 -113 9 -15 21 -19 65 -18 35 1 56 6
59 15 8 20 63 18 75 -3 5 -10 12 -15 15 -12 10 10 -40 144 -54 144 -7 0 -23
-27 -35 -59 -21 -56 -24 -59 -60 -63 -44 -4 -55 6 -55 53 0 39 21 58 56 50 19
-5 25 -3 22 6 -7 21 -62 21 -81 0z"/>
<path d="M8569 7311 c-43 -14 -72 -32 -112 -70 -72 -68 -72 -67 -72 -431 l0
-325 28 -47 c31 -53 79 -94 134 -114 54 -19 692 -19 746 0 52 19 103 60 135
109 l27 42 0 340 0 341 -33 44 c-37 51 -98 95 -151 110 -42 12 -663 12 -702 1z
m427 -350 c22 -10 54 -35 71 -56 57 -68 54 -148 -6 -217 -44 -51 -54 -72 -55
-117 -1 -23 -8 -37 -21 -45 -11 -6 -24 -17 -28 -23 -4 -7 -21 -13 -37 -13 -16
0 -33 6 -37 13 -4 6 -17 17 -28 23 -14 8 -20 22 -20 45 -1 44 -11 65 -55 116
-60 68 -62 152 -7 218 36 44 97 75 147 75 19 0 53 -9 76 -19z"/>
<path d="M6267 7153 c-4 -3 -7 -15 -7 -25 0 -17 18 -18 375 -18 l375 0 2 -272
c3 -251 4 -273 21 -276 16 -3 17 14 15 295 l-3 298 -386 3 c-212 1 -388 -1
-392 -5z"/>
<path d="M6202 7058 l3 -23 373 -3 372 -2 0 -270 c0 -148 4 -271 9 -274 27
-17 31 28 29 305 l-3 284 -393 3 -393 2 3 -22z"/>
<path d="M6125 6988 c-3 -13 -4 -149 -3 -303 l3 -280 394 -3 c309 -2 396 1
403 10 13 22 10 572 -4 586 -9 9 -112 12 -400 12 l-388 0 -5 -22z m745 -288
l0 -240 -345 0 -345 0 0 240 0 240 345 0 345 0 0 -240z"/>
<path d="M6242 6885 c-7 -14 -19 -28 -27 -31 -12 -5 -15 -32 -15 -155 0 -129
2 -149 16 -149 9 0 21 -13 27 -30 l11 -30 268 0 268 0 10 26 c6 14 19 28 30
31 19 5 20 14 20 150 0 143 0 145 -25 165 -14 11 -25 26 -25 34 0 12 -43 14
-273 14 l-274 0 -11 -25z m344 -42 c59 -39 83 -153 45 -223 -21 -40 -74 -80
-105 -80 -32 0 -84 36 -106 72 -39 65 -20 183 38 228 31 25 93 26 128 3z"/>
<path d="M13583 6775 l-23 -16 0 -497 c0 -273 4 -503 8 -510 7 -9 40 -12 133
-10 l124 3 3 278 c2 228 5 277 16 277 8 0 49 -55 91 -122 98 -156 111 -168
176 -168 28 0 58 4 67 9 10 5 56 70 102 145 51 81 91 135 99 134 11 -3 13 -48
12 -260 -2 -170 2 -264 9 -278 10 -18 20 -20 125 -20 62 0 116 4 119 9 8 13 9
1022 1 1030 -4 3 -58 6 -120 6 -97 0 -116 -3 -134 -19 -12 -11 -76 -108 -144
-218 -76 -124 -127 -197 -136 -196 -13 3 -104 143 -221 339 -21 36 -47 72 -56
80 -27 22 -222 25 -251 4z"/>
<path d="M10457 6773 c-12 -12 -8 -178 5 -191 9 -9 75 -12 235 -12 179 0 223
-3 223 -13 0 -8 -106 -146 -236 -308 -130 -162 -240 -304 -245 -317 -11 -29
-12 -163 -1 -180 7 -10 100 -12 433 -10 l424 3 3 90 c2 76 0 92 -14 102 -13
10 -81 13 -266 13 -192 0 -248 3 -248 13 0 6 89 122 197 257 108 135 218 274
245 309 l48 64 0 87 c0 71 -3 89 -16 94 -21 8 -779 8 -787 -1z"/>
<path d="M12317 6768 c-19 -15 -43 -67 -133 -288 -34 -85 -88 -216 -119 -290
-135 -328 -176 -433 -167 -442 5 -5 64 -7 133 -6 l124 3 38 95 c42 105 124
318 195 508 25 67 50 121 56 119 10 -3 16 -14 34 -57 18 -45 204 -530 227
-595 10 -27 23 -56 28 -62 14 -19 256 -18 263 0 2 7 -12 51 -31 98 -20 46 -59
140 -87 209 -27 69 -60 148 -73 175 -12 28 -30 72 -39 99 -9 27 -25 67 -35 90
-11 22 -38 88 -61 146 -64 159 -79 189 -99 200 -29 15 -233 13 -254 -2z"/>
<path d="M6787 5479 c-9 -5 -24 -23 -32 -39 l-16 -30 -212 0 c-152 0 -216 -3
-225 -12 -16 -16 -17 -799 -2 -829 10 -18 23 -19 195 -19 l185 0 89 108 90
107 1 260 c0 242 1 262 20 290 24 35 26 95 5 134 -20 40 -60 52 -98 30z m-44
-111 c2 -13 8 -31 12 -40 6 -16 0 -18 -69 -18 -90 0 -102 -14 -87 -102 0 -5
43 -8 95 -8 101 0 106 3 106 56 0 19 5 24 25 24 l25 0 0 -233 c0 -235 -4 -263
-36 -250 -11 4 -14 31 -14 115 0 108 0 110 -29 139 l-29 29 -162 0 c-96 0
-169 -4 -182 -11 -37 -20 -48 -69 -48 -210 0 -145 12 -187 56 -208 14 -6 75
-11 139 -11 l115 0 0 -30 0 -30 -172 2 -173 3 -3 390 c-1 214 0 396 3 402 3
10 55 13 214 13 208 0 209 0 214 -22z m-93 -348 l0 -40 -140 0 c-154 0 -165 5
-115 55 23 24 30 25 140 25 l115 0 0 -40z m0 -211 l0 -151 -121 4 c-160 4
-159 3 -159 174 l0 124 140 0 140 0 0 -151z"/>
<path d="M13855 5448 c-7 -21 -11 -378 -4 -370 4 4 23 54 43 112 21 58 44 113
53 122 14 16 37 18 193 18 l177 0 -5 28 c-3 15 -10 30 -16 35 -6 4 -57 7 -113
6 -100 -1 -103 -1 -140 30 -34 28 -44 31 -111 31 -49 0 -74 -4 -77 -12z"/>
<path d="M10942 5389 c-100 -19 -200 -85 -264 -173 -33 -45 -37 -95 -10 -119
19 -18 59 -22 77 -9 40 29 62 156 30 168 -23 9 -18 20 20 44 l35 22 32 -33
c27 -26 34 -29 36 -16 5 23 20 21 42 -5 10 -13 22 -19 27 -15 4 5 0 14 -10 21
-25 19 -21 33 11 40 15 4 34 9 43 12 14 4 16 -3 12 -47 -3 -52 -3 -52 17 -34
29 26 38 10 10 -20 -19 -20 -37 -85 -24 -85 2 0 18 9 36 20 40 24 52 25 44 3
-5 -11 1 -23 16 -34 21 -16 24 -16 58 0 19 10 68 31 107 46 57 22 71 31 62 41
-20 24 -48 87 -43 95 3 5 -17 19 -43 31 -26 13 -50 26 -53 29 -9 9 -135 29
-181 28 -24 -1 -63 -5 -87 -10z"/>
<path d="M13963 5278 c-9 -11 -93 -242 -93 -254 0 -2 61 -4 135 -4 l135 0 0
35 c0 46 20 85 62 120 29 25 38 27 89 22 l56 -5 13 38 c7 21 9 43 6 49 -11 17
-390 15 -403 -1z"/>
<path d="M14233 5155 c-56 -24 -72 -80 -52 -189 3 -13 -4 -24 -17 -31 -29 -14
-74 -69 -74 -89 0 -9 7 -19 17 -23 19 -7 56 33 79 85 14 32 15 32 44 17 37
-19 53 -19 90 0 83 43 79 195 -5 231 -41 17 -42 17 -82 -1z m99 -32 c29 -26
41 -78 28 -118 -13 -40 -53 -75 -85 -75 -34 0 -73 36 -86 80 -10 32 -9 44 7
76 30 62 90 78 136 37z"/>
<path d="M11310 5089 c-30 -22 -106 -77 -168 -121 l-113 -81 78 -23 c86 -26
103 -24 198 24 57 28 67 39 61 65 -3 10 3 39 12 63 14 38 14 46 3 53 -9 6 -11
18 -7 35 3 14 3 26 -1 26 -5 0 -33 -19 -63 -41z"/>
<path d="M10615 5067 c-21 -77 20 -216 84 -290 35 -39 122 -107 139 -107 5 0
21 17 35 39 14 21 43 47 64 57 27 14 37 24 35 38 -2 10 6 32 18 48 19 26 19
28 3 20 -19 -10 -52 -10 -69 0 -5 4 -16 3 -24 -2 -8 -5 -32 -7 -52 -3 -20 3
-52 0 -70 -6 l-33 -10 46 42 45 42 -17 35 -17 35 -63 -3 c-74 -3 -98 10 -109
60 l-7 33 -8 -28z"/>
<path d="M11460 4995 c-16 -31 -77 -81 -143 -119 -40 -24 -46 -31 -35 -43 9
-12 9 -16 -3 -24 -8 -5 -9 -9 -4 -9 6 0 10 -14 10 -30 1 -26 -4 -32 -35 -40
-19 -5 -43 -10 -52 -10 -9 0 -39 -11 -66 -25 -28 -14 -54 -25 -60 -25 -5 0
-15 -7 -22 -15 -17 -20 -40 -19 -40 2 0 14 -2 14 -20 -2 -28 -25 -16 -35 41
-35 220 0 429 162 453 353 6 52 -3 61 -24 22z"/>
<path d="M13735 4768 c-3 -7 -18 -55 -34 -105 -26 -85 -27 -93 -11 -93 10 0
20 9 23 20 4 15 14 20 42 20 28 0 38 -5 42 -20 3 -11 14 -20 24 -20 17 0 17 3
3 48 -8 26 -22 73 -31 105 -12 43 -21 57 -35 57 -10 0 -21 -6 -23 -12z"/>
<path d="M14054 4768 c-29 -14 -44 -49 -44 -104 0 -58 32 -94 85 -94 57 0 85
35 85 105 0 46 -4 60 -25 80 -26 26 -64 31 -101 13z"/>
<path d="M14220 4701 c0 -64 4 -83 21 -105 24 -30 72 -35 107 -10 20 14 22 23
22 105 0 71 -3 89 -15 89 -11 0 -15 -18 -17 -81 -2 -65 -7 -84 -20 -93 -13 -8
-23 -8 -35 0 -14 9 -19 28 -21 93 -3 73 -5 81 -22 81 -18 0 -20 -7 -20 -79z"/>
<path d="M14578 4769 c-12 -6 -18 -22 -18 -45 0 -31 4 -36 48 -57 33 -15 47
-28 47 -42 0 -26 -52 -35 -61 -11 -7 17 -44 22 -44 6 0 -21 41 -50 71 -50 51
0 69 16 69 61 0 39 -2 41 -50 61 -50 21 -64 43 -34 55 9 3 25 1 35 -5 43 -27
67 -6 27 22 -26 18 -65 20 -90 5z"/>
<path d="M13992 3661 c-31 -10 -71 -35 -94 -57 -75 -73 -73 -60 -73 -429 l0
-330 27 -41 c38 -58 94 -102 155 -120 43 -12 109 -14 375 -12 311 3 325 4 364
25 64 34 100 69 123 118 20 43 21 60 21 360 0 296 -1 318 -20 359 -25 52 -60
86 -120 118 -44 23 -51 23 -375 25 -300 3 -335 1 -383 -16z m555 -95 l28 -24
3 -364 3 -364 -25 -27 -25 -27 -179 0 c-166 0 -181 2 -206 21 l-26 20 0 374 0
374 26 20 c25 19 40 21 200 21 168 0 174 -1 201 -24z"/>
<path d="M14188 3415 c-3 -4 -4 -102 -2 -218 2 -117 4 -218 4 -225 0 -10 35
-12 158 -10 l157 3 0 225 0 225 -156 3 c-85 1 -158 0 -161 -3z"/>
<path d="M15780 2703 c-331 -308 -701 -560 -1125 -768 -366 -180 -794 -331
-1125 -395 -93 -18 -104 -25 -96 -63 11 -61 56 -251 61 -255 6 -6 177 28 190
38 6 4 33 11 60 14 146 20 624 183 895 306 377 171 751 395 1060 636 195 152
450 378 450 399 0 18 -209 205 -229 204 -9 0 -72 -53 -141 -116z"/>
<path d="M16136 2228 c-45 -72 -269 -444 -273 -455 -4 -11 5 -14 42 -11 l48 3
118 243 c99 203 115 242 99 242 -11 0 -26 -10 -34 -22z"/>
<path d="M16213 2238 c-10 -18 -202 -439 -209 -460 -5 -17 6 -18 140 -18 l146
0 0 245 0 245 -34 0 c-19 0 -38 -6 -43 -12z"/>
<path d="M16330 2005 l0 -245 145 0 144 0 -33 73 c-18 39 -68 150 -110 245
l-78 172 -34 0 -34 0 0 -245z"/>
<path d="M16430 2246 c0 -2 52 -111 115 -242 l115 -239 46 -3 c25 -2 44 0 42
5 -61 111 -295 483 -305 483 -7 0 -13 -2 -13 -4z"/>
<path d="M15087 1613 c-4 -3 -7 -107 -7 -230 l0 -224 23 3 c22 3 22 3 25 222
2 169 -1 221 -10 228 -16 10 -23 10 -31 1z"/>
<path d="M15201 1606 c-8 -9 -11 -58 -9 -157 3 -136 4 -144 23 -144 19 0 20 7
20 154 0 154 -6 181 -34 147z"/>
<path d="M15314 1607 c-2 -7 -3 -78 -2 -157 3 -137 4 -145 23 -145 19 0 20 8
23 149 2 113 -1 151 -10 158 -18 11 -28 10 -34 -5z"/>
<path d="M15432 1608 c-15 -15 -17 -284 -2 -293 6 -4 8 -26 4 -55 -6 -45 -4
-50 29 -86 l36 -39 79 0 c68 0 85 -4 111 -23 60 -44 87 -10 30 38 -28 23 -30
29 -20 47 7 14 11 90 11 216 0 169 -2 196 -16 201 -9 3 -20 4 -25 0 -5 -3 -9
-66 -9 -140 0 -76 -4 -134 -9 -134 -5 0 -21 4 -35 10 -26 10 -26 10 -26 134 0
69 -4 127 -9 130 -5 4 -16 3 -25 0 -13 -5 -16 -26 -16 -133 l0 -127 -30 -11
-30 -11 0 132 c0 123 -6 156 -30 156 -3 0 -11 -5 -18 -12z m203 -323 c14 -13
25 -33 25 -45 0 -11 -11 -32 -25 -45 -62 -63 -179 -1 -141 74 18 34 28 39 79
40 28 1 45 -6 62 -24z"/>
<path d="M14100 980 c0 -58 3 -70 16 -70 11 0 14 -5 9 -17 -3 -10 -9 -30 -12
-45 -5 -27 -4 -28 36 -28 32 0 41 -4 41 -17 0 -10 9 -32 20 -50 62 -103 277
-105 349 -4 19 27 29 99 16 113 -3 3 -42 -4 -86 -15 -44 -11 -82 -17 -85 -14
-4 3 13 42 37 86 23 44 40 83 38 86 -11 11 -99 17 -143 11 l-46 -7 0 -55 c0
-57 -18 -80 -43 -54 -9 9 -8 11 8 8 18 -3 20 3 23 70 l3 72 -91 0 -90 0 0 -70z"/>
<path d="M14476 949 c-26 -49 -46 -92 -43 -95 6 -7 267 59 267 68 0 23 -134
118 -167 118 -5 0 -30 -41 -57 -91z"/>
<path d="M14613 880 c-18 -8 -21 -14 -16 -43 12 -77 -68 -160 -169 -173 -38
-5 -48 -10 -48 -25 0 -39 124 -16 201 37 46 31 79 91 79 141 0 51 -17 74 -47
63z"/>
<path d="M14110 800 c0 -57 83 -141 161 -164 73 -22 99 -21 99 4 0 15 -9 21
-40 26 -61 10 -125 55 -146 103 -15 34 -23 41 -46 41 -15 0 -28 -5 -28 -10z"/>
</g>
</svg>
